<?xml version="1.0" standalone="no"?>
<!DOCTYPE svg PUBLIC "-//W3C//DTD SVG 20010904//EN"
 "http://www.w3.org/TR/2001/REC-SVG-20010904/DTD/svg10.dtd">
<svg version="1.0" xmlns="http://www.w3.org/2000/svg"
 width="130.000000pt" height="130.000000pt" viewBox="0 0 130.000000 130.000000"
 preserveAspectRatio="xMidYMid meet">

<g transform="translate(0.000000,130.000000) scale(0.100000,-0.100000)"
fill="#ff0000" stroke="none">
<path d="M548 1290 c-70 -12 -145 -39 -213 -74 -79 -40 -210 -172 -252 -251
-105 -201 -105 -429 0 -630 42 -79 173 -210 252 -252 201 -105 429 -105 630 0
79 42 210 173 252 252 105 201 105 429 0 630 -42 79 -173 210 -252 252 -124
65 -297 95 -417 73z m210 -150 l3 -65 -111 0 -110 0 0 61 c0 33 3 64 7 68 4 4
52 5 107 4 l101 -3 3 -65z m-435 -164 c9 -6 17 -13 17 -16 0 -3 -18 -29 -39
-58 -22 -28 -45 -68 -51 -87 -6 -19 -15 -35 -18 -35 -4 0 -31 14 -59 30 -49
28 -52 32 -43 55 15 40 36 77 70 123 l31 43 37 -22 c20 -13 45 -28 55 -33z
m796 -14 c17 -26 37 -64 46 -84 l15 -38 -52 -30 c-29 -16 -56 -30 -60 -30 -3
0 -12 16 -18 35 -6 19 -29 59 -51 87 -21 29 -39 55 -39 58 0 3 24 19 52 37 60
36 62 35 107 -35z m-324 4 c70 -32 140 -102 173 -174 36 -77 38 -202 4 -275
-104 -230 -393 -287 -567 -112 -71 71 -100 141 -100 245 0 71 5 94 27 142 44
95 136 173 235 198 61 15 167 4 228 -24z m-544 -481 c10 -26 32 -65 49 -86 16
-21 30 -40 30 -43 0 -10 -103 -67 -114 -63 -13 6 -69 97 -90 148 l-15 36 52
30 c29 17 56 30 61 29 4 -1 17 -24 27 -51z m886 21 l52 -29 -15 -36 c-21 -51
-77 -142 -90 -148 -11 -4 -114 53 -114 63 0 2 15 24 34 48 19 25 40 62 46 83
15 47 20 55 29 51 3 -2 30 -16 58 -32z m-379 -346 l-3 -65 -105 0 -105 0 -3
65 -3 65 111 0 111 0 -3 -65z"/>
<path d="M632 908 c-6 -6 -12 -20 -12 -30 0 -11 -13 -23 -32 -31 -46 -20 -69
-49 -75 -94 -7 -52 23 -87 101 -123 74 -33 92 -51 77 -78 -13 -25 -51 -32
-103 -20 -52 11 -68 5 -68 -25 0 -31 15 -43 63 -51 31 -6 37 -11 37 -32 0 -13
7 -27 15 -30 21 -8 45 14 45 40 0 16 10 25 35 35 48 17 75 55 75 105 0 58 -21
82 -106 122 -52 25 -74 41 -74 54 0 32 26 43 84 36 60 -7 83 7 71 44 -4 14
-18 22 -45 26 -33 5 -39 11 -42 33 -3 28 -27 38 -46 19z"/>
</g>
</svg>
